<?xml version="1.0" encoding="UTF-8" ?>
<svg version="1.1" width="30" height="30" xmlns="http://www.w3.org/2000/svg" shape-rendering="crispEdges">
<rect x="12" y="9" width="1" height="1" fill="#908B6F" />
<rect x="13" y="9" width="1" height="1" fill="#A09C83" />
<rect x="14" y="9" width="1" height="1" fill="#B0A59F" />
<rect x="15" y="9" width="1" height="1" fill="#BAB2AF" />
<rect x="16" y="9" width="1" height="1" fill="#BAB2AF" />
<rect x="11" y="10" width="1" height="1" fill="#757957" />
<rect x="12" y="10" width="1" height="1" fill="#8E8866" />
<rect x="13" y="10" width="1" height="1" fill="#A09B85" />
<rect x="14" y="10" width="1" height="1" fill="#B1A6A3" />
<rect x="15" y="10" width="1" height="1" fill="#BAB2AF" />
<rect x="16" y="10" width="1" height="1" fill="#BAB2AF" />
<rect x="17" y="10" width="1" height="1" fill="#8C8773" />
<rect x="10" y="11" width="1" height="1" fill="#434F27" />
<rect x="11" y="11" width="1" height="1" fill="#80815A" />
<rect x="12" y="11" width="1" height="1" fill="#949A81" />
<rect x="13" y="11" width="1" height="1" fill="#A09C83" />
<rect x="14" y="11" width="1" height="1" fill="#709FB3" />
<rect x="15" y="11" width="1" height="1" fill="#CFD1D0" />
<rect x="16" y="11" width="1" height="1" fill="#D0D0D0" />
<rect x="17" y="11" width="1" height="1" fill="#9B9386" />
<rect x="18" y="11" width="1" height="1" fill="#767957" />
<rect x="9" y="12" width="1" height="1" fill="#43502C" />
<rect x="10" y="12" width="1" height="1" fill="#5E8DA1" />
<rect x="11" y="12" width="1" height="1" fill="#8E8867" />
<rect x="12" y="12" width="1" height="1" fill="#949A80" />
<rect x="13" y="12" width="1" height="1" fill="#949A80" />
<rect x="14" y="12" width="1" height="1" fill="#AAAE9D" />
<rect x="15" y="12" width="1" height="1" fill="#709FB3" />
<rect x="16" y="12" width="1" height="1" fill="#AAAF9B" />
<rect x="17" y="12" width="1" height="1" fill="#888C72" />
<rect x="18" y="12" width="1" height="1" fill="#70724A" />
<rect x="19" y="12" width="1" height="1" fill="#16263F" />
<rect x="9" y="13" width="1" height="1" fill="#43502C" />
<rect x="10" y="13" width="1" height="1" fill="#5E8DA1" />
<rect x="11" y="13" width="1" height="1" fill="#8B916B" />
<rect x="12" y="13" width="1" height="1" fill="#949982" />
<rect x="13" y="13" width="1" height="1" fill="#5E8DA3" />
<rect x="14" y="13" width="1" height="1" fill="#709FB3" />
<rect x="15" y="13" width="1" height="1" fill="#709FB3" />
<rect x="16" y="13" width="1" height="1" fill="#949981" />
<rect x="17" y="13" width="1" height="1" fill="#829275" />
<rect x="18" y="13" width="1" height="1" fill="#6E7959" />
<rect x="19" y="13" width="1" height="1" fill="#576037" />
<rect x="9" y="14" width="1" height="1" fill="#15273F" />
<rect x="10" y="14" width="1" height="1" fill="#6F6F4A" />
<rect x="11" y="14" width="1" height="1" fill="#80805A" />
<rect x="12" y="14" width="1" height="1" fill="#848C67" />
<rect x="13" y="14" width="1" height="1" fill="#5E8DA1" />
<rect x="14" y="14" width="1" height="1" fill="#709FB3" />
<rect x="15" y="14" width="1" height="1" fill="#AAAF9B" />
<rect x="16" y="14" width="1" height="1" fill="#AAAF9B" />
<rect x="17" y="14" width="1" height="1" fill="#969A81" />
<rect x="18" y="14" width="1" height="1" fill="#747A56" />
<rect x="19" y="14" width="1" height="1" fill="#45512D" />
<rect x="9" y="15" width="1" height="1" fill="#162640" />
<rect x="10" y="15" width="1" height="1" fill="#6F714A" />
<rect x="11" y="15" width="1" height="1" fill="#52583E" />
<rect x="12" y="15" width="1" height="1" fill="#757956" />
<rect x="13" y="15" width="1" height="1" fill="#A09D82" />
<rect x="14" y="15" width="1" height="1" fill="#5E8DA1" />
<rect x="15" y="15" width="1" height="1" fill="#BDB79E" />
<rect x="16" y="15" width="1" height="1" fill="#B8B297" />
<rect x="17" y="15" width="1" height="1" fill="#A09C83" />
<rect x="18" y="15" width="1" height="1" fill="#757956" />
<rect x="19" y="15" width="1" height="1" fill="#52583E" />
<rect x="9" y="16" width="1" height="1" fill="#16263F" />
<rect x="10" y="16" width="1" height="1" fill="#173341" />
<rect x="11" y="16" width="1" height="1" fill="#44502C" />
<rect x="12" y="16" width="1" height="1" fill="#52583E" />
<rect x="13" y="16" width="1" height="1" fill="#7C8169" />
<rect x="14" y="16" width="1" height="1" fill="#314D5A" />
<rect x="15" y="16" width="1" height="1" fill="#949A80" />
<rect x="16" y="16" width="1" height="1" fill="#8E8868" />
<rect x="17" y="16" width="1" height="1" fill="#767A57" />
<rect x="18" y="16" width="1" height="1" fill="#52583E" />
<rect x="19" y="16" width="1" height="1" fill="#44502B" />
<rect x="10" y="17" width="1" height="1" fill="#15253F" />
<rect x="11" y="17" width="1" height="1" fill="#62643C" />
<rect x="12" y="17" width="1" height="1" fill="#44502C" />
<rect x="13" y="17" width="1" height="1" fill="#44502C" />
<rect x="14" y="17" width="1" height="1" fill="#304C58" />
<rect x="15" y="17" width="1" height="1" fill="#314D59" />
<rect x="16" y="17" width="1" height="1" fill="#6F7149" />
<rect x="17" y="17" width="1" height="1" fill="#6F714A" />
<rect x="18" y="17" width="1" height="1" fill="#444F2D" />
<rect x="11" y="18" width="1" height="1" fill="#434F2B" />
<rect x="12" y="18" width="1" height="1" fill="#444F2C" />
<rect x="13" y="18" width="1" height="1" fill="#16263F" />
<rect x="14" y="18" width="1" height="1" fill="#16263F" />
<rect x="15" y="18" width="1" height="1" fill="#172741" />
<rect x="16" y="18" width="1" height="1" fill="#62653E" />
<rect x="17" y="18" width="1" height="1" fill="#434F2B" />
<rect x="12" y="19" width="1" height="1" fill="#162740" />
<rect x="13" y="19" width="1" height="1" fill="#10182B" />
<rect x="14" y="19" width="1" height="1" fill="#10182B" />
<rect x="15" y="19" width="1" height="1" fill="#10182C" />
<rect x="16" y="19" width="1" height="1" fill="#15273F" />
</svg>