<?xml version="1.0" encoding="UTF-8" ?>
<svg version="1.1" width="30" height="30" xmlns="http://www.w3.org/2000/svg" shape-rendering="crispEdges">
<rect x="12" y="6" width="1" height="1" fill="#C0956B" />
<rect x="13" y="6" width="1" height="1" fill="#C0956B" />
<rect x="14" y="6" width="1" height="1" fill="#C0956B" />
<rect x="15" y="6" width="1" height="1" fill="#C0956B" />
<rect x="16" y="6" width="1" height="1" fill="#C0956B" />
<rect x="17" y="6" width="1" height="1" fill="#C1956B" />
<rect x="10" y="7" width="1" height="1" fill="#F4DDAA" />
<rect x="11" y="7" width="1" height="1" fill="#F8D59C" />
<rect x="12" y="7" width="1" height="1" fill="#EED094" />
<rect x="13" y="7" width="1" height="1" fill="#E1B47B" />
<rect x="14" y="7" width="1" height="1" fill="#EBD29A" />
<rect x="15" y="7" width="1" height="1" fill="#E1C691" />
<rect x="16" y="7" width="1" height="1" fill="#BDA47B" />
<rect x="17" y="7" width="1" height="1" fill="#B59971" />
<rect x="18" y="7" width="1" height="1" fill="#A17958" />
<rect x="19" y="7" width="1" height="1" fill="#987C65" />
<rect x="9" y="8" width="1" height="1" fill="#FCE2BA" />
<rect x="10" y="8" width="1" height="1" fill="#FCE2BA" />
<rect x="11" y="8" width="1" height="1" fill="#FCF0CA" />
<rect x="12" y="8" width="1" height="1" fill="#FFFBD8" />
<rect x="13" y="8" width="1" height="1" fill="#FFFBD8" />
<rect x="14" y="8" width="1" height="1" fill="#F3E8B2" />
<rect x="15" y="8" width="1" height="1" fill="#F3E8B2" />
<rect x="16" y="8" width="1" height="1" fill="#E7D9A1" />
<rect x="17" y="8" width="1" height="1" fill="#DFC48F" />
<rect x="18" y="8" width="1" height="1" fill="#B59971" />
<rect x="19" y="8" width="1" height="1" fill="#83684D" />
<rect x="20" y="8" width="1" height="1" fill="#83684D" />
<rect x="8" y="9" width="1" height="1" fill="#EDB78B" />
<rect x="9" y="9" width="1" height="1" fill="#F8DCB5" />
<rect x="10" y="9" width="1" height="1" fill="#FEEDD1" />
<rect x="11" y="9" width="1" height="1" fill="#FFFBD8" />
<rect x="12" y="9" width="1" height="1" fill="#FFFBD8" />
<rect x="13" y="9" width="1" height="1" fill="#FFFBD8" />
<rect x="14" y="9" width="1" height="1" fill="#FFFBD8" />
<rect x="15" y="9" width="1" height="1" fill="#FFFBD8" />
<rect x="16" y="9" width="1" height="1" fill="#EEE5C1" />
<rect x="17" y="9" width="1" height="1" fill="#E7CF9F" />
<rect x="18" y="9" width="1" height="1" fill="#D3AA76" />
<rect x="19" y="9" width="1" height="1" fill="#B99C73" />
<rect x="20" y="9" width="1" height="1" fill="#9E8863" />
<rect x="21" y="9" width="1" height="1" fill="#775D46" />
<rect x="7" y="10" width="1" height="1" fill="#B76D3C" />
<rect x="8" y="10" width="1" height="1" fill="#B76D3C" />
<rect x="9" y="10" width="1" height="1" fill="#E2B57C" />
<rect x="10" y="10" width="1" height="1" fill="#F4DDA8" />
<rect x="11" y="10" width="1" height="1" fill="#FFFBD8" />
<rect x="12" y="10" width="1" height="1" fill="#FFFBD8" />
<rect x="13" y="10" width="1" height="1" fill="#FFFBD8" />
<rect x="14" y="10" width="1" height="1" fill="#FFFBD8" />
<rect x="15" y="10" width="1" height="1" fill="#FAF5D2" />
<rect x="16" y="10" width="1" height="1" fill="#FFFBD8" />
<rect x="17" y="10" width="1" height="1" fill="#F2E8C5" />
<rect x="18" y="10" width="1" height="1" fill="#E7D0B3" />
<rect x="19" y="10" width="1" height="1" fill="#B69971" />
<rect x="20" y="10" width="1" height="1" fill="#B69971" />
<rect x="21" y="10" width="1" height="1" fill="#957856" />
<rect x="22" y="10" width="1" height="1" fill="#83684D" />
<rect x="7" y="11" width="1" height="1" fill="#CD9A62" />
<rect x="8" y="11" width="1" height="1" fill="#BF845C" />
<rect x="9" y="11" width="1" height="1" fill="#C58E56" />
<rect x="10" y="11" width="1" height="1" fill="#DFBF82" />
<rect x="11" y="11" width="1" height="1" fill="#F6E8A9" />
<rect x="12" y="11" width="1" height="1" fill="#FEFECC" />
<rect x="13" y="11" width="1" height="1" fill="#FEFECC" />
<rect x="14" y="11" width="1" height="1" fill="#F9F5D2" />
<rect x="15" y="11" width="1" height="1" fill="#FFFBD8" />
<rect x="16" y="11" width="1" height="1" fill="#FFFBD8" />
<rect x="17" y="11" width="1" height="1" fill="#F4E7C5" />
<rect x="18" y="11" width="1" height="1" fill="#D9CCAC" />
<rect x="19" y="11" width="1" height="1" fill="#C0AE96" />
<rect x="20" y="11" width="1" height="1" fill="#BEA891" />
<rect x="21" y="11" width="1" height="1" fill="#B7A18C" />
<rect x="22" y="11" width="1" height="1" fill="#A08B73" />
<rect x="6" y="12" width="1" height="1" fill="#BC8144" />
<rect x="7" y="12" width="1" height="1" fill="#C58E56" />
<rect x="8" y="12" width="1" height="1" fill="#CB9962" />
<rect x="9" y="12" width="1" height="1" fill="#E4CEA3" />
<rect x="10" y="12" width="1" height="1" fill="#EDDFB8" />
<rect x="11" y="12" width="1" height="1" fill="#EADB96" />
<rect x="12" y="12" width="1" height="1" fill="#EADB96" />
<rect x="13" y="12" width="1" height="1" fill="#EADB96" />
<rect x="14" y="12" width="1" height="1" fill="#F6E7AA" />
<rect x="15" y="12" width="1" height="1" fill="#F9F4BE" />
<rect x="16" y="12" width="1" height="1" fill="#F9F3BF" />
<rect x="17" y="12" width="1" height="1" fill="#F2E8C6" />
<rect x="18" y="12" width="1" height="1" fill="#F2E8C5" />
<rect x="19" y="12" width="1" height="1" fill="#D8CBAB" />
<rect x="20" y="12" width="1" height="1" fill="#AE9881" />
<rect x="21" y="12" width="1" height="1" fill="#807060" />
<rect x="22" y="12" width="1" height="1" fill="#807060" />
<rect x="23" y="12" width="1" height="1" fill="#807060" />
<rect x="6" y="13" width="1" height="1" fill="#762801" />
<rect x="7" y="13" width="1" height="1" fill="#762801" />
<rect x="8" y="13" width="1" height="1" fill="#B17B45" />
<rect x="9" y="13" width="1" height="1" fill="#D4AC78" />
<rect x="10" y="13" width="1" height="1" fill="#EADB96" />
<rect x="11" y="13" width="1" height="1" fill="#F4DDA8" />
<rect x="12" y="13" width="1" height="1" fill="#FFFBD8" />
<rect x="13" y="13" width="1" height="1" fill="#F4DDA8" />
<rect x="14" y="13" width="1" height="1" fill="#EFE199" />
<rect x="15" y="13" width="1" height="1" fill="#E0C785" />
<rect x="16" y="13" width="1" height="1" fill="#E6D38E" />
<rect x="17" y="13" width="1" height="1" fill="#D9C485" />
<rect x="18" y="13" width="1" height="1" fill="#D6BA88" />
<rect x="19" y="13" width="1" height="1" fill="#C4AE7E" />
<rect x="20" y="13" width="1" height="1" fill="#9E8864" />
<rect x="21" y="13" width="1" height="1" fill="#977B63" />
<rect x="22" y="13" width="1" height="1" fill="#715C49" />
<rect x="23" y="13" width="1" height="1" fill="#605446" />
<rect x="6" y="14" width="1" height="1" fill="#925020" />
<rect x="7" y="14" width="1" height="1" fill="#7C390C" />
<rect x="8" y="14" width="1" height="1" fill="#7C390C" />
<rect x="9" y="14" width="1" height="1" fill="#7C390C" />
<rect x="10" y="14" width="1" height="1" fill="#B27B45" />
<rect x="11" y="14" width="1" height="1" fill="#EADB96" />
<rect x="12" y="14" width="1" height="1" fill="#E1C592" />
<rect x="13" y="14" width="1" height="1" fill="#E1C592" />
<rect x="14" y="14" width="1" height="1" fill="#F3E8B2" />
<rect x="15" y="14" width="1" height="1" fill="#F4DDA9" />
<rect x="16" y="14" width="1" height="1" fill="#E1C691" />
<rect x="17" y="14" width="1" height="1" fill="#D5B577" />
<rect x="18" y="14" width="1" height="1" fill="#B18958" />
<rect x="19" y="14" width="1" height="1" fill="#9F764A" />
<rect x="20" y="14" width="1" height="1" fill="#643B1F" />
<rect x="21" y="14" width="1" height="1" fill="#472615" />
<rect x="22" y="14" width="1" height="1" fill="#472615" />
<rect x="23" y="14" width="1" height="1" fill="#654E37" />
<rect x="6" y="15" width="1" height="1" fill="#5C1B00" />
<rect x="7" y="15" width="1" height="1" fill="#894402" />
<rect x="8" y="15" width="1" height="1" fill="#94683E" />
<rect x="9" y="15" width="1" height="1" fill="#760201" />
<rect x="10" y="15" width="1" height="1" fill="#733D1B" />
<rect x="11" y="15" width="1" height="1" fill="#7E4F25" />
<rect x="12" y="15" width="1" height="1" fill="#A26A2E" />
<rect x="13" y="15" width="1" height="1" fill="#A77446" />
<rect x="14" y="15" width="1" height="1" fill="#C1A26B" />
<rect x="15" y="15" width="1" height="1" fill="#B28A58" />
<rect x="16" y="15" width="1" height="1" fill="#D4BA87" />
<rect x="17" y="15" width="1" height="1" fill="#B69971" />
<rect x="18" y="15" width="1" height="1" fill="#AC8C5F" />
<rect x="19" y="15" width="1" height="1" fill="#846441" />
<rect x="20" y="15" width="1" height="1" fill="#503017" />
<rect x="21" y="15" width="1" height="1" fill="#462512" />
<rect x="22" y="15" width="1" height="1" fill="#231C09" />
<rect x="23" y="15" width="1" height="1" fill="#1A1406" />
<rect x="6" y="16" width="1" height="1" fill="#856A4D" />
<rect x="7" y="16" width="1" height="1" fill="#733D1B" />
<rect x="8" y="16" width="1" height="1" fill="#A0682F" />
<rect x="9" y="16" width="1" height="1" fill="#995138" />
<rect x="10" y="16" width="1" height="1" fill="#995138" />
<rect x="11" y="16" width="1" height="1" fill="#A26A2E" />
<rect x="12" y="16" width="1" height="1" fill="#9C774B" />
<rect x="13" y="16" width="1" height="1" fill="#7E4F25" />
<rect x="14" y="16" width="1" height="1" fill="#69330D" />
<rect x="15" y="16" width="1" height="1" fill="#7E4E1D" />
<rect x="16" y="16" width="1" height="1" fill="#6D4218" />
<rect x="17" y="16" width="1" height="1" fill="#714F2C" />
<rect x="18" y="16" width="1" height="1" fill="#614327" />
<rect x="19" y="16" width="1" height="1" fill="#4F2F17" />
<rect x="20" y="16" width="1" height="1" fill="#3D2F12" />
<rect x="21" y="16" width="1" height="1" fill="#3E3013" />
<rect x="22" y="16" width="1" height="1" fill="#321F19" />
<rect x="23" y="16" width="1" height="1" fill="#231C09" />
<rect x="6" y="17" width="1" height="1" fill="#775D46" />
<rect x="7" y="17" width="1" height="1" fill="#80542F" />
<rect x="8" y="17" width="1" height="1" fill="#977B63" />
<rect x="9" y="17" width="1" height="1" fill="#BDA47B" />
<rect x="10" y="17" width="1" height="1" fill="#B79872" />
<rect x="11" y="17" width="1" height="1" fill="#925020" />
<rect x="12" y="17" width="1" height="1" fill="#9E8863" />
<rect x="13" y="17" width="1" height="1" fill="#9E8863" />
<rect x="14" y="17" width="1" height="1" fill="#927455" />
<rect x="15" y="17" width="1" height="1" fill="#6E4831" />
<rect x="16" y="17" width="1" height="1" fill="#472411" />
<rect x="17" y="17" width="1" height="1" fill="#361705" />
<rect x="18" y="17" width="1" height="1" fill="#361705" />
<rect x="19" y="17" width="1" height="1" fill="#240E01" />
<rect x="20" y="17" width="1" height="1" fill="#241C09" />
<rect x="21" y="17" width="1" height="1" fill="#31240D" />
<rect x="22" y="17" width="1" height="1" fill="#241C09" />
<rect x="23" y="17" width="1" height="1" fill="#1F1807" />
<rect x="7" y="18" width="1" height="1" fill="#775D46" />
<rect x="8" y="18" width="1" height="1" fill="#775D46" />
<rect x="9" y="18" width="1" height="1" fill="#80573F" />
<rect x="10" y="18" width="1" height="1" fill="#440001" />
<rect x="11" y="18" width="1" height="1" fill="#704A33" />
<rect x="12" y="18" width="1" height="1" fill="#704A33" />
<rect x="13" y="18" width="1" height="1" fill="#654F37" />
<rect x="14" y="18" width="1" height="1" fill="#5D4329" />
<rect x="15" y="18" width="1" height="1" fill="#655138" />
<rect x="16" y="18" width="1" height="1" fill="#503019" />
<rect x="17" y="18" width="1" height="1" fill="#361A10" />
<rect x="18" y="18" width="1" height="1" fill="#361A10" />
<rect x="19" y="18" width="1" height="1" fill="#361A10" />
<rect x="20" y="18" width="1" height="1" fill="#191307" />
<rect x="21" y="18" width="1" height="1" fill="#191307" />
<rect x="22" y="18" width="1" height="1" fill="#241C08" />
<rect x="7" y="19" width="1" height="1" fill="#5A4938" />
<rect x="8" y="19" width="1" height="1" fill="#4F3F2F" />
<rect x="9" y="19" width="1" height="1" fill="#634229" />
<rect x="10" y="19" width="1" height="1" fill="#503017" />
<rect x="11" y="19" width="1" height="1" fill="#513425" />
<rect x="12" y="19" width="1" height="1" fill="#513425" />
<rect x="13" y="19" width="1" height="1" fill="#4F3F2F" />
<rect x="14" y="19" width="1" height="1" fill="#402A1F" />
<rect x="15" y="19" width="1" height="1" fill="#31250D" />
<rect x="16" y="19" width="1" height="1" fill="#361A10" />
<rect x="17" y="19" width="1" height="1" fill="#361A10" />
<rect x="18" y="19" width="1" height="1" fill="#361A10" />
<rect x="19" y="19" width="1" height="1" fill="#361A10" />
<rect x="20" y="19" width="1" height="1" fill="#412B20" />
<rect x="21" y="19" width="1" height="1" fill="#361B10" />
<rect x="22" y="19" width="1" height="1" fill="#321E18" />
<rect x="8" y="20" width="1" height="1" fill="#443626" />
<rect x="9" y="20" width="1" height="1" fill="#4F3F2F" />
<rect x="10" y="20" width="1" height="1" fill="#321F19" />
<rect x="11" y="20" width="1" height="1" fill="#321F19" />
<rect x="12" y="20" width="1" height="1" fill="#321F19" />
<rect x="13" y="20" width="1" height="1" fill="#321F19" />
<rect x="14" y="20" width="1" height="1" fill="#321F19" />
<rect x="15" y="20" width="1" height="1" fill="#221B09" />
<rect x="16" y="20" width="1" height="1" fill="#221B09" />
<rect x="17" y="20" width="1" height="1" fill="#221B09" />
<rect x="18" y="20" width="1" height="1" fill="#221B09" />
<rect x="19" y="20" width="1" height="1" fill="#321F19" />
<rect x="20" y="20" width="1" height="1" fill="#321F19" />
<rect x="21" y="20" width="1" height="1" fill="#231B08" />
<rect x="9" y="21" width="1" height="1" fill="#402A1F" />
<rect x="10" y="21" width="1" height="1" fill="#321F19" />
<rect x="11" y="21" width="1" height="1" fill="#321F19" />
<rect x="12" y="21" width="1" height="1" fill="#221B09" />
<rect x="13" y="21" width="1" height="1" fill="#221B09" />
<rect x="14" y="21" width="1" height="1" fill="#221B09" />
<rect x="15" y="21" width="1" height="1" fill="#221B09" />
<rect x="16" y="21" width="1" height="1" fill="#221B09" />
<rect x="17" y="21" width="1" height="1" fill="#221B09" />
<rect x="18" y="21" width="1" height="1" fill="#221B09" />
<rect x="19" y="21" width="1" height="1" fill="#351A0F" />
<rect x="20" y="21" width="1" height="1" fill="#351A0F" />
<rect x="10" y="22" width="1" height="1" fill="#321F19" />
<rect x="11" y="22" width="1" height="1" fill="#31250D" />
<rect x="12" y="22" width="1" height="1" fill="#321F19" />
<rect x="13" y="22" width="1" height="1" fill="#321F19" />
<rect x="14" y="22" width="1" height="1" fill="#321F19" />
<rect x="15" y="22" width="1" height="1" fill="#321F19" />
<rect x="16" y="22" width="1" height="1" fill="#321F19" />
<rect x="17" y="22" width="1" height="1" fill="#332C23" />
<rect x="18" y="22" width="1" height="1" fill="#221B09" />
<rect x="19" y="22" width="1" height="1" fill="#221B09" />
<rect x="12" y="23" width="1" height="1" fill="#321F19" />
<rect x="13" y="23" width="1" height="1" fill="#321F19" />
<rect x="14" y="23" width="1" height="1" fill="#321F19" />
<rect x="15" y="23" width="1" height="1" fill="#321F19" />
<rect x="16" y="23" width="1" height="1" fill="#221B09" />
<rect x="17" y="23" width="1" height="1" fill="#221B09" />
</svg>