<?xml version="1.0" encoding="UTF-8" ?>
<svg version="1.1" width="30" height="30" xmlns="http://www.w3.org/2000/svg" shape-rendering="crispEdges">
<rect x="12" y="10" width="1" height="1" fill="#513524" />
<rect x="13" y="10" width="1" height="1" fill="#513424" />
<rect x="14" y="10" width="1" height="1" fill="#412B20" />
<rect x="15" y="10" width="1" height="1" fill="#412B20" />
<rect x="16" y="10" width="1" height="1" fill="#412B20" />
<rect x="11" y="11" width="1" height="1" fill="#513424" />
<rect x="12" y="11" width="1" height="1" fill="#A57449" />
<rect x="13" y="11" width="1" height="1" fill="#C68F56" />
<rect x="14" y="11" width="1" height="1" fill="#9C6648" />
<rect x="15" y="11" width="1" height="1" fill="#693E2E" />
<rect x="16" y="11" width="1" height="1" fill="#513424" />
<rect x="17" y="11" width="1" height="1" fill="#513424" />
<rect x="10" y="12" width="1" height="1" fill="#4F3422" />
<rect x="11" y="12" width="1" height="1" fill="#825840" />
<rect x="12" y="12" width="1" height="1" fill="#C1855B" />
<rect x="13" y="12" width="1" height="1" fill="#AE7155" />
<rect x="14" y="12" width="1" height="1" fill="#AF7155" />
<rect x="15" y="12" width="1" height="1" fill="#C58B66" />
<rect x="16" y="12" width="1" height="1" fill="#714A34" />
<rect x="17" y="12" width="1" height="1" fill="#513424" />
<rect x="18" y="12" width="1" height="1" fill="#513424" />
<rect x="10" y="13" width="1" height="1" fill="#513424" />
<rect x="11" y="13" width="1" height="1" fill="#9C664A" />
<rect x="12" y="13" width="1" height="1" fill="#C78D67" />
<rect x="13" y="13" width="1" height="1" fill="#9D6648" />
<rect x="14" y="13" width="1" height="1" fill="#EDB78B" />
<rect x="15" y="13" width="1" height="1" fill="#DA9E79" />
<rect x="16" y="13" width="1" height="1" fill="#C58B66" />
<rect x="17" y="13" width="1" height="1" fill="#82583F" />
<rect x="18" y="13" width="1" height="1" fill="#4F3423" />
<rect x="10" y="14" width="1" height="1" fill="#422C21" />
<rect x="11" y="14" width="1" height="1" fill="#9E6648" />
<rect x="12" y="14" width="1" height="1" fill="#693E2E" />
<rect x="13" y="14" width="1" height="1" fill="#9C6748" />
<rect x="14" y="14" width="1" height="1" fill="#C58B66" />
<rect x="15" y="14" width="1" height="1" fill="#DA9E79" />
<rect x="16" y="14" width="1" height="1" fill="#C58B66" />
<rect x="17" y="14" width="1" height="1" fill="#704A33" />
<rect x="18" y="14" width="1" height="1" fill="#321F19" />
<rect x="10" y="15" width="1" height="1" fill="#422C1F" />
<rect x="11" y="15" width="1" height="1" fill="#85582F" />
<rect x="12" y="15" width="1" height="1" fill="#C58B66" />
<rect x="13" y="15" width="1" height="1" fill="#EEB88C" />
<rect x="14" y="15" width="1" height="1" fill="#C58B66" />
<rect x="15" y="15" width="1" height="1" fill="#9D6848" />
<rect x="16" y="15" width="1" height="1" fill="#683E2D" />
<rect x="17" y="15" width="1" height="1" fill="#513423" />
<rect x="18" y="15" width="1" height="1" fill="#311E18" />
<rect x="10" y="16" width="1" height="1" fill="#422B20" />
<rect x="11" y="16" width="1" height="1" fill="#85582F" />
<rect x="12" y="16" width="1" height="1" fill="#402D1F" />
<rect x="13" y="16" width="1" height="1" fill="#9C6748" />
<rect x="14" y="16" width="1" height="1" fill="#9C6748" />
<rect x="15" y="16" width="1" height="1" fill="#9C6748" />
<rect x="16" y="16" width="1" height="1" fill="#503325" />
<rect x="17" y="16" width="1" height="1" fill="#271815" />
<rect x="18" y="16" width="1" height="1" fill="#412B1F" />
<rect x="11" y="17" width="1" height="1" fill="#402A1F" />
<rect x="12" y="17" width="1" height="1" fill="#835730" />
<rect x="13" y="17" width="1" height="1" fill="#3F2B20" />
<rect x="14" y="17" width="1" height="1" fill="#513424" />
<rect x="15" y="17" width="1" height="1" fill="#513424" />
<rect x="16" y="17" width="1" height="1" fill="#271815" />
<rect x="17" y="17" width="1" height="1" fill="#3E2C20" />
<rect x="12" y="18" width="1" height="1" fill="#402B20" />
<rect x="13" y="18" width="1" height="1" fill="#261713" />
<rect x="14" y="18" width="1" height="1" fill="#261815" />
<rect x="15" y="18" width="1" height="1" fill="#321F19" />
<rect x="16" y="18" width="1" height="1" fill="#402A20" />
</svg>