<?xml version="1.0" encoding="UTF-8" ?>
<svg version="1.1" width="30" height="30" xmlns="http://www.w3.org/2000/svg" shape-rendering="crispEdges">
<rect x="12" y="10" width="1" height="1" fill="#3A4E86" />
<rect x="13" y="10" width="1" height="1" fill="#6379B2" />
<rect x="14" y="10" width="1" height="1" fill="#647AB3" />
<rect x="15" y="10" width="1" height="1" fill="#5069A9" />
<rect x="16" y="10" width="1" height="1" fill="#3B5086" />
<rect x="17" y="10" width="1" height="1" fill="#202F50" />
<rect x="11" y="11" width="1" height="1" fill="#425892" />
<rect x="12" y="11" width="1" height="1" fill="#8BA2D9" />
<rect x="13" y="11" width="1" height="1" fill="#9BB4EA" />
<rect x="14" y="11" width="1" height="1" fill="#9BB4EA" />
<rect x="15" y="11" width="1" height="1" fill="#8BA1DA" />
<rect x="16" y="11" width="1" height="1" fill="#8BA1DA" />
<rect x="17" y="11" width="1" height="1" fill="#2B3F73" />
<rect x="18" y="11" width="1" height="1" fill="#202E51" />
<rect x="10" y="12" width="1" height="1" fill="#3A4F86" />
<rect x="11" y="12" width="1" height="1" fill="#5069A9" />
<rect x="12" y="12" width="1" height="1" fill="#9CB5EB" />
<rect x="13" y="12" width="1" height="1" fill="#ABC2F4" />
<rect x="14" y="12" width="1" height="1" fill="#ABC2F4" />
<rect x="15" y="12" width="1" height="1" fill="#9CB5EB" />
<rect x="16" y="12" width="1" height="1" fill="#889ED7" />
<rect x="17" y="12" width="1" height="1" fill="#425892" />
<rect x="18" y="12" width="1" height="1" fill="#202E5D" />
<rect x="19" y="12" width="1" height="1" fill="#10182B" />
<rect x="10" y="13" width="1" height="1" fill="#435993" />
<rect x="11" y="13" width="1" height="1" fill="#9BB4EA" />
<rect x="12" y="13" width="1" height="1" fill="#BBD2FC" />
<rect x="13" y="13" width="1" height="1" fill="#C4DBFD" />
<rect x="14" y="13" width="1" height="1" fill="#BFD7FD" />
<rect x="15" y="13" width="1" height="1" fill="#AAC1F3" />
<rect x="16" y="13" width="1" height="1" fill="#8CA0DA" />
<rect x="17" y="13" width="1" height="1" fill="#46599E" />
<rect x="18" y="13" width="1" height="1" fill="#2C4075" />
<rect x="19" y="13" width="1" height="1" fill="#192440" />
<rect x="10" y="14" width="1" height="1" fill="#3A4F86" />
<rect x="11" y="14" width="1" height="1" fill="#9BB4EA" />
<rect x="12" y="14" width="1" height="1" fill="#BDD4FD" />
<rect x="13" y="14" width="1" height="1" fill="#C4DBFD" />
<rect x="14" y="14" width="1" height="1" fill="#C1D9FF" />
<rect x="15" y="14" width="1" height="1" fill="#AAC1F3" />
<rect x="16" y="14" width="1" height="1" fill="#9BB4EA" />
<rect x="17" y="14" width="1" height="1" fill="#40529A" />
<rect x="18" y="14" width="1" height="1" fill="#22316C" />
<rect x="19" y="14" width="1" height="1" fill="#192440" />
<rect x="10" y="15" width="1" height="1" fill="#415791" />
<rect x="11" y="15" width="1" height="1" fill="#9CB4EA" />
<rect x="12" y="15" width="1" height="1" fill="#ABC2F5" />
<rect x="13" y="15" width="1" height="1" fill="#BBD2FB" />
<rect x="14" y="15" width="1" height="1" fill="#B8CFFB" />
<rect x="15" y="15" width="1" height="1" fill="#9BB4EA" />
<rect x="16" y="15" width="1" height="1" fill="#8BA1DA" />
<rect x="17" y="15" width="1" height="1" fill="#33448C" />
<rect x="18" y="15" width="1" height="1" fill="#202E5C" />
<rect x="19" y="15" width="1" height="1" fill="#192440" />
<rect x="10" y="16" width="1" height="1" fill="#202E51" />
<rect x="11" y="16" width="1" height="1" fill="#7389C2" />
<rect x="12" y="16" width="1" height="1" fill="#9BB4EC" />
<rect x="13" y="16" width="1" height="1" fill="#ABC2F4" />
<rect x="14" y="16" width="1" height="1" fill="#9BB4EA" />
<rect x="15" y="16" width="1" height="1" fill="#7389C3" />
<rect x="16" y="16" width="1" height="1" fill="#46599E" />
<rect x="17" y="16" width="1" height="1" fill="#324184" />
<rect x="18" y="16" width="1" height="1" fill="#202E51" />
<rect x="19" y="16" width="1" height="1" fill="#10182B" />
<rect x="10" y="17" width="1" height="1" fill="#202E51" />
<rect x="11" y="17" width="1" height="1" fill="#4A5D92" />
<rect x="12" y="17" width="1" height="1" fill="#788EC9" />
<rect x="13" y="17" width="1" height="1" fill="#8CA2DB" />
<rect x="14" y="17" width="1" height="1" fill="#788DCC" />
<rect x="15" y="17" width="1" height="1" fill="#45589D" />
<rect x="16" y="17" width="1" height="1" fill="#314084" />
<rect x="17" y="17" width="1" height="1" fill="#202E5C" />
<rect x="18" y="17" width="1" height="1" fill="#192440" />
<rect x="19" y="17" width="1" height="1" fill="#10182B" />
<rect x="11" y="18" width="1" height="1" fill="#202E51" />
<rect x="12" y="18" width="1" height="1" fill="#415384" />
<rect x="13" y="18" width="1" height="1" fill="#425892" />
<rect x="14" y="18" width="1" height="1" fill="#4F629A" />
<rect x="15" y="18" width="1" height="1" fill="#2C4175" />
<rect x="16" y="18" width="1" height="1" fill="#202F50" />
<rect x="17" y="18" width="1" height="1" fill="#192440" />
<rect x="18" y="18" width="1" height="1" fill="#192440" />
<rect x="12" y="19" width="1" height="1" fill="#192440" />
<rect x="13" y="19" width="1" height="1" fill="#1A2541" />
<rect x="14" y="19" width="1" height="1" fill="#192440" />
<rect x="15" y="19" width="1" height="1" fill="#18233F" />
<rect x="16" y="19" width="1" height="1" fill="#10192C" />
<rect x="17" y="19" width="1" height="1" fill="#1A2132" />
</svg>