<?xml version="1.0" encoding="UTF-8" ?>
<svg version="1.1" width="30" height="30" xmlns="http://www.w3.org/2000/svg" shape-rendering="crispEdges">
<rect x="5" y="5" width="1" height="1" fill="#D5A952" />
<rect x="6" y="5" width="1" height="1" fill="#BE7A34" />
<rect x="5" y="6" width="1" height="1" fill="#E4BA58" />
<rect x="6" y="6" width="1" height="1" fill="#EBCD6B" />
<rect x="7" y="6" width="1" height="1" fill="#BE7C31" />
<rect x="8" y="6" width="1" height="1" fill="#B1692F" />
<rect x="6" y="7" width="1" height="1" fill="#E3B957" />
<rect x="7" y="7" width="1" height="1" fill="#BE7C31" />
<rect x="8" y="7" width="1" height="1" fill="#B69639" />
<rect x="9" y="7" width="1" height="1" fill="#B16A30" />
<rect x="12" y="7" width="1" height="1" fill="#F7C891" />
<rect x="13" y="7" width="1" height="1" fill="#FBCB93" />
<rect x="14" y="7" width="1" height="1" fill="#F9CC93" />
<rect x="15" y="7" width="1" height="1" fill="#D4BA87" />
<rect x="16" y="7" width="1" height="1" fill="#D5B992" />
<rect x="17" y="7" width="1" height="1" fill="#D0B395" />
<rect x="6" y="8" width="1" height="1" fill="#E9CC6A" />
<rect x="7" y="8" width="1" height="1" fill="#E4BA58" />
<rect x="8" y="8" width="1" height="1" fill="#503017" />
<rect x="9" y="8" width="1" height="1" fill="#B69536" />
<rect x="10" y="8" width="1" height="1" fill="#DDC28D" />
<rect x="11" y="8" width="1" height="1" fill="#E2C792" />
<rect x="12" y="8" width="1" height="1" fill="#EDB78B" />
<rect x="13" y="8" width="1" height="1" fill="#ECC38F" />
<rect x="14" y="8" width="1" height="1" fill="#E1C691" />
<rect x="15" y="8" width="1" height="1" fill="#CAAD81" />
<rect x="16" y="8" width="1" height="1" fill="#C8B08C" />
<rect x="17" y="8" width="1" height="1" fill="#BCA37B" />
<rect x="18" y="8" width="1" height="1" fill="#C0A48F" />
<rect x="19" y="8" width="1" height="1" fill="#9E887D" />
<rect x="7" y="9" width="1" height="1" fill="#E4BA58" />
<rect x="8" y="9" width="1" height="1" fill="#503017" />
<rect x="9" y="9" width="1" height="1" fill="#F0CA99" />
<rect x="10" y="9" width="1" height="1" fill="#F1CB9A" />
<rect x="11" y="9" width="1" height="1" fill="#FCDD9D" />
<rect x="12" y="9" width="1" height="1" fill="#F0CA99" />
<rect x="13" y="9" width="1" height="1" fill="#E1C691" />
<rect x="14" y="9" width="1" height="1" fill="#E1C691" />
<rect x="15" y="9" width="1" height="1" fill="#D5B987" />
<rect x="16" y="9" width="1" height="1" fill="#BBA283" />
<rect x="17" y="9" width="1" height="1" fill="#BDA47B" />
<rect x="18" y="9" width="1" height="1" fill="#AD987D" />
<rect x="19" y="9" width="1" height="1" fill="#9F8972" />
<rect x="20" y="9" width="1" height="1" fill="#968070" />
<rect x="7" y="10" width="1" height="1" fill="#E4BA58" />
<rect x="8" y="10" width="1" height="1" fill="#F3D479" />
<rect x="9" y="10" width="1" height="1" fill="#55331A" />
<rect x="10" y="10" width="1" height="1" fill="#F0D9A6" />
<rect x="11" y="10" width="1" height="1" fill="#F0CA99" />
<rect x="12" y="10" width="1" height="1" fill="#F3DDA9" />
<rect x="13" y="10" width="1" height="1" fill="#ECCC9D" />
<rect x="14" y="10" width="1" height="1" fill="#E1C691" />
<rect x="15" y="10" width="1" height="1" fill="#D5B986" />
<rect x="16" y="10" width="1" height="1" fill="#B69971" />
<rect x="17" y="10" width="1" height="1" fill="#B39F7C" />
<rect x="18" y="10" width="1" height="1" fill="#9F8972" />
<rect x="19" y="10" width="1" height="1" fill="#9F8972" />
<rect x="20" y="10" width="1" height="1" fill="#8D7A6C" />
<rect x="21" y="10" width="1" height="1" fill="#807060" />
<rect x="8" y="11" width="1" height="1" fill="#E4BA58" />
<rect x="9" y="11" width="1" height="1" fill="#EACC6A" />
<rect x="10" y="11" width="1" height="1" fill="#55331A" />
<rect x="11" y="11" width="1" height="1" fill="#F3DCA8" />
<rect x="12" y="11" width="1" height="1" fill="#FEEEBA" />
<rect x="13" y="11" width="1" height="1" fill="#F4DDA9" />
<rect x="14" y="11" width="1" height="1" fill="#E1C68F" />
<rect x="15" y="11" width="1" height="1" fill="#E1C691" />
<rect x="16" y="11" width="1" height="1" fill="#BEA47C" />
<rect x="17" y="11" width="1" height="1" fill="#AC9774" />
<rect x="18" y="11" width="1" height="1" fill="#987C65" />
<rect x="19" y="11" width="1" height="1" fill="#977B63" />
<rect x="20" y="11" width="1" height="1" fill="#977B63" />
<rect x="21" y="11" width="1" height="1" fill="#807060" />
<rect x="7" y="12" width="1" height="1" fill="#83684C" />
<rect x="8" y="12" width="1" height="1" fill="#E4BA58" />
<rect x="9" y="12" width="1" height="1" fill="#EACC6A" />
<rect x="10" y="12" width="1" height="1" fill="#C17D33" />
<rect x="11" y="12" width="1" height="1" fill="#503017" />
<rect x="12" y="12" width="1" height="1" fill="#E1C691" />
<rect x="13" y="12" width="1" height="1" fill="#FDE7B6" />
<rect x="14" y="12" width="1" height="1" fill="#F4DDA9" />
<rect x="15" y="12" width="1" height="1" fill="#D5B987" />
<rect x="16" y="12" width="1" height="1" fill="#CAAD81" />
<rect x="17" y="12" width="1" height="1" fill="#AB946B" />
<rect x="18" y="12" width="1" height="1" fill="#83684D" />
<rect x="19" y="12" width="1" height="1" fill="#775D46" />
<rect x="20" y="12" width="1" height="1" fill="#775D46" />
<rect x="21" y="12" width="1" height="1" fill="#715C48" />
<rect x="22" y="12" width="1" height="1" fill="#5E5448" />
<rect x="7" y="13" width="1" height="1" fill="#83684C" />
<rect x="8" y="13" width="1" height="1" fill="#83684D" />
<rect x="9" y="13" width="1" height="1" fill="#E5BB57" />
<rect x="10" y="13" width="1" height="1" fill="#ECCE6C" />
<rect x="11" y="13" width="1" height="1" fill="#BD7C31" />
<rect x="12" y="13" width="1" height="1" fill="#533119" />
<rect x="13" y="13" width="1" height="1" fill="#E1C691" />
<rect x="14" y="13" width="1" height="1" fill="#FAE4B3" />
<rect x="15" y="13" width="1" height="1" fill="#E1C690" />
<rect x="16" y="13" width="1" height="1" fill="#CAAD81" />
<rect x="17" y="13" width="1" height="1" fill="#9E8863" />
<rect x="18" y="13" width="1" height="1" fill="#82674C" />
<rect x="19" y="13" width="1" height="1" fill="#654F37" />
<rect x="20" y="13" width="1" height="1" fill="#654F37" />
<rect x="21" y="13" width="1" height="1" fill="#715C48" />
<rect x="22" y="13" width="1" height="1" fill="#5E5448" />
<rect x="7" y="14" width="1" height="1" fill="#775D43" />
<rect x="8" y="14" width="1" height="1" fill="#83684D" />
<rect x="9" y="14" width="1" height="1" fill="#B69971" />
<rect x="10" y="14" width="1" height="1" fill="#E4BA58" />
<rect x="11" y="14" width="1" height="1" fill="#E4BA58" />
<rect x="12" y="14" width="1" height="1" fill="#BD7C31" />
<rect x="13" y="14" width="1" height="1" fill="#4B2B12" />
<rect x="14" y="14" width="1" height="1" fill="#E1C691" />
<rect x="15" y="14" width="1" height="1" fill="#F5DEAB" />
<rect x="16" y="14" width="1" height="1" fill="#CAAC80" />
<rect x="17" y="14" width="1" height="1" fill="#AF8E61" />
<rect x="18" y="14" width="1" height="1" fill="#79613F" />
<rect x="19" y="14" width="1" height="1" fill="#654F37" />
<rect x="20" y="14" width="1" height="1" fill="#4C3C25" />
<rect x="21" y="14" width="1" height="1" fill="#5B4A38" />
<rect x="22" y="14" width="1" height="1" fill="#52483C" />
<rect x="7" y="15" width="1" height="1" fill="#605446" />
<rect x="8" y="15" width="1" height="1" fill="#83684D" />
<rect x="9" y="15" width="1" height="1" fill="#977B63" />
<rect x="10" y="15" width="1" height="1" fill="#B69970" />
<rect x="11" y="15" width="1" height="1" fill="#EACC6A" />
<rect x="12" y="15" width="1" height="1" fill="#E8B964" />
<rect x="13" y="15" width="1" height="1" fill="#BD7C31" />
<rect x="14" y="15" width="1" height="1" fill="#503017" />
<rect x="15" y="15" width="1" height="1" fill="#F4DDA9" />
<rect x="16" y="15" width="1" height="1" fill="#E0C590" />
<rect x="17" y="15" width="1" height="1" fill="#AF8E61" />
<rect x="18" y="15" width="1" height="1" fill="#896B45" />
<rect x="19" y="15" width="1" height="1" fill="#604928" />
<rect x="20" y="15" width="1" height="1" fill="#4B3923" />
<rect x="21" y="15" width="1" height="1" fill="#5B4A38" />
<rect x="22" y="15" width="1" height="1" fill="#5B4A38" />
<rect x="7" y="16" width="1" height="1" fill="#605446" />
<rect x="8" y="16" width="1" height="1" fill="#715C48" />
<rect x="9" y="16" width="1" height="1" fill="#8A745B" />
<rect x="10" y="16" width="1" height="1" fill="#9D8863" />
<rect x="11" y="16" width="1" height="1" fill="#B19760" />
<rect x="12" y="16" width="1" height="1" fill="#E8CD69" />
<rect x="13" y="16" width="1" height="1" fill="#EBBA64" />
<rect x="14" y="16" width="1" height="1" fill="#743E1B" />
<rect x="15" y="16" width="1" height="1" fill="#503017" />
<rect x="16" y="16" width="1" height="1" fill="#D3AA76" />
<rect x="17" y="16" width="1" height="1" fill="#AF8E61" />
<rect x="18" y="16" width="1" height="1" fill="#83582F" />
<rect x="19" y="16" width="1" height="1" fill="#593B19" />
<rect x="20" y="16" width="1" height="1" fill="#493917" />
<rect x="21" y="16" width="1" height="1" fill="#5B4A38" />
<rect x="22" y="16" width="1" height="1" fill="#5B4A38" />
<rect x="7" y="17" width="1" height="1" fill="#5B4A38" />
<rect x="8" y="17" width="1" height="1" fill="#605446" />
<rect x="9" y="17" width="1" height="1" fill="#775D46" />
<rect x="10" y="17" width="1" height="1" fill="#83684B" />
<rect x="11" y="17" width="1" height="1" fill="#977B63" />
<rect x="12" y="17" width="1" height="1" fill="#9E8863" />
<rect x="13" y="17" width="1" height="1" fill="#E4BA58" />
<rect x="14" y="17" width="1" height="1" fill="#C4A143" />
<rect x="15" y="17" width="1" height="1" fill="#7E4D22" />
<rect x="16" y="17" width="1" height="1" fill="#503017" />
<rect x="17" y="17" width="1" height="1" fill="#9F7A46" />
<rect x="18" y="17" width="1" height="1" fill="#835730" />
<rect x="19" y="17" width="1" height="1" fill="#704E29" />
<rect x="20" y="17" width="1" height="1" fill="#4F3F2F" />
<rect x="21" y="17" width="1" height="1" fill="#5B4A38" />
<rect x="22" y="17" width="1" height="1" fill="#5B4A38" />
<rect x="8" y="18" width="1" height="1" fill="#5B4A37" />
<rect x="9" y="18" width="1" height="1" fill="#5B4A37" />
<rect x="10" y="18" width="1" height="1" fill="#775C46" />
<rect x="11" y="18" width="1" height="1" fill="#83684D" />
<rect x="12" y="18" width="1" height="1" fill="#957856" />
<rect x="13" y="18" width="1" height="1" fill="#957856" />
<rect x="14" y="18" width="1" height="1" fill="#EBCE6B" />
<rect x="15" y="18" width="1" height="1" fill="#D5A952" />
<rect x="16" y="18" width="1" height="1" fill="#8A5827" />
<rect x="17" y="18" width="1" height="1" fill="#503017" />
<rect x="18" y="18" width="1" height="1" fill="#714F2A" />
<rect x="19" y="18" width="1" height="1" fill="#82572E" />
<rect x="20" y="18" width="1" height="1" fill="#5B4A37" />
<rect x="21" y="18" width="1" height="1" fill="#5B4A38" />
<rect x="8" y="19" width="1" height="1" fill="#5B4A39" />
<rect x="9" y="19" width="1" height="1" fill="#4F3F2F" />
<rect x="10" y="19" width="1" height="1" fill="#443727" />
<rect x="11" y="19" width="1" height="1" fill="#5B4A38" />
<rect x="12" y="19" width="1" height="1" fill="#654F37" />
<rect x="13" y="19" width="1" height="1" fill="#775D46" />
<rect x="14" y="19" width="1" height="1" fill="#79613C" />
<rect x="15" y="19" width="1" height="1" fill="#ECCC6B" />
<rect x="16" y="19" width="1" height="1" fill="#ECCC6B" />
<rect x="17" y="19" width="1" height="1" fill="#9D6837" />
<rect x="18" y="19" width="1" height="1" fill="#503017" />
<rect x="19" y="19" width="1" height="1" fill="#79613F" />
<rect x="20" y="19" width="1" height="1" fill="#835730" />
<rect x="21" y="19" width="1" height="1" fill="#5B4A38" />
<rect x="9" y="20" width="1" height="1" fill="#433626" />
<rect x="10" y="20" width="1" height="1" fill="#4F3F2F" />
<rect x="11" y="20" width="1" height="1" fill="#4F3F2F" />
<rect x="12" y="20" width="1" height="1" fill="#4F3F2F" />
<rect x="13" y="20" width="1" height="1" fill="#4F3F2F" />
<rect x="14" y="20" width="1" height="1" fill="#4F3F2F" />
<rect x="15" y="20" width="1" height="1" fill="#59452A" />
<rect x="16" y="20" width="1" height="1" fill="#E4BA58" />
<rect x="17" y="20" width="1" height="1" fill="#E4BA58" />
<rect x="18" y="20" width="1" height="1" fill="#593C19" />
<rect x="19" y="20" width="1" height="1" fill="#231C09" />
<rect x="20" y="20" width="1" height="1" fill="#4F3F2F" />
<rect x="21" y="20" width="1" height="1" fill="#B59437" />
<rect x="22" y="20" width="1" height="1" fill="#B1692F" />
<rect x="10" y="21" width="1" height="1" fill="#4F3F2F" />
<rect x="11" y="21" width="1" height="1" fill="#443727" />
<rect x="12" y="21" width="1" height="1" fill="#443727" />
<rect x="13" y="21" width="1" height="1" fill="#443727" />
<rect x="14" y="21" width="1" height="1" fill="#443727" />
<rect x="15" y="21" width="1" height="1" fill="#443727" />
<rect x="16" y="21" width="1" height="1" fill="#4F3F30" />
<rect x="17" y="21" width="1" height="1" fill="#E4BA58" />
<rect x="18" y="21" width="1" height="1" fill="#E4BA58" />
<rect x="19" y="21" width="1" height="1" fill="#593A1A" />
<rect x="20" y="21" width="1" height="1" fill="#241C09" />
<rect x="21" y="21" width="1" height="1" fill="#503018" />
<rect x="22" y="21" width="1" height="1" fill="#B59437" />
<rect x="23" y="21" width="1" height="1" fill="#BE7C32" />
<rect x="12" y="22" width="1" height="1" fill="#443828" />
<rect x="13" y="22" width="1" height="1" fill="#443727" />
<rect x="14" y="22" width="1" height="1" fill="#312A20" />
<rect x="15" y="22" width="1" height="1" fill="#342D23" />
<rect x="16" y="22" width="1" height="1" fill="#332C22" />
<rect x="17" y="22" width="1" height="1" fill="#4F402E" />
<rect x="19" y="22" width="1" height="1" fill="#E4BA58" />
<rect x="20" y="22" width="1" height="1" fill="#E4BA58" />
<rect x="21" y="22" width="1" height="1" fill="#BF9E41" />
<rect x="22" y="22" width="1" height="1" fill="#4F3017" />
<rect x="23" y="22" width="1" height="1" fill="#BE7C32" />
<rect x="21" y="23" width="1" height="1" fill="#DFB858" />
<rect x="22" y="23" width="1" height="1" fill="#C4A241" />
<rect x="23" y="23" width="1" height="1" fill="#C4A143" />
<rect x="24" y="23" width="1" height="1" fill="#BE7C32" />
<rect x="23" y="24" width="1" height="1" fill="#E2BA58" />
<rect x="24" y="24" width="1" height="1" fill="#D5A854" />
</svg>