<?xml version="1.0" encoding="UTF-8" ?>
<svg version="1.1" width="30" height="30" xmlns="http://www.w3.org/2000/svg" shape-rendering="crispEdges">
<rect x="12" y="9" width="1" height="1" fill="#758B98" />
<rect x="13" y="9" width="1" height="1" fill="#7F949F" />
<rect x="14" y="9" width="1" height="1" fill="#7F949F" />
<rect x="15" y="9" width="1" height="1" fill="#6F8289" />
<rect x="16" y="9" width="1" height="1" fill="#6F8289" />
<rect x="17" y="9" width="1" height="1" fill="#5F7281" />
<rect x="11" y="10" width="1" height="1" fill="#8F9DA5" />
<rect x="12" y="10" width="1" height="1" fill="#9EB2BB" />
<rect x="13" y="10" width="1" height="1" fill="#9EB2BB" />
<rect x="14" y="10" width="1" height="1" fill="#9EB2BB" />
<rect x="15" y="10" width="1" height="1" fill="#9EB2BB" />
<rect x="16" y="10" width="1" height="1" fill="#9EB2BB" />
<rect x="17" y="10" width="1" height="1" fill="#7F95A0" />
<rect x="18" y="10" width="1" height="1" fill="#5F7181" />
<rect x="10" y="11" width="1" height="1" fill="#7D939E" />
<rect x="11" y="11" width="1" height="1" fill="#B0C7CF" />
<rect x="12" y="11" width="1" height="1" fill="#B0C7CF" />
<rect x="13" y="11" width="1" height="1" fill="#C5DBE4" />
<rect x="14" y="11" width="1" height="1" fill="#C5DBE4" />
<rect x="15" y="11" width="1" height="1" fill="#AFC6CE" />
<rect x="16" y="11" width="1" height="1" fill="#AFC6CE" />
<rect x="17" y="11" width="1" height="1" fill="#92A9B1" />
<rect x="18" y="11" width="1" height="1" fill="#758B98" />
<rect x="19" y="11" width="1" height="1" fill="#50636E" />
<rect x="9" y="12" width="1" height="1" fill="#606F76" />
<rect x="10" y="12" width="1" height="1" fill="#9EB2BB" />
<rect x="11" y="12" width="1" height="1" fill="#C4DBE3" />
<rect x="12" y="12" width="1" height="1" fill="#DAEDF3" />
<rect x="13" y="12" width="1" height="1" fill="#DAEDF3" />
<rect x="14" y="12" width="1" height="1" fill="#DAEDF3" />
<rect x="15" y="12" width="1" height="1" fill="#DAEDF3" />
<rect x="16" y="12" width="1" height="1" fill="#C5DBE4" />
<rect x="17" y="12" width="1" height="1" fill="#B0C7CF" />
<rect x="18" y="12" width="1" height="1" fill="#7F959F" />
<rect x="19" y="12" width="1" height="1" fill="#607382" />
<rect x="20" y="12" width="1" height="1" fill="#425158" />
<rect x="9" y="13" width="1" height="1" fill="#5F7078" />
<rect x="10" y="13" width="1" height="1" fill="#B0C7CF" />
<rect x="11" y="13" width="1" height="1" fill="#C4DBE3" />
<rect x="12" y="13" width="1" height="1" fill="#DAEDF3" />
<rect x="13" y="13" width="1" height="1" fill="#DAEDF3" />
<rect x="14" y="13" width="1" height="1" fill="#DAEDF3" />
<rect x="15" y="13" width="1" height="1" fill="#DAEDF3" />
<rect x="16" y="13" width="1" height="1" fill="#C5DBE4" />
<rect x="17" y="13" width="1" height="1" fill="#B0C7CF" />
<rect x="18" y="13" width="1" height="1" fill="#7F959F" />
<rect x="19" y="13" width="1" height="1" fill="#526470" />
<rect x="20" y="13" width="1" height="1" fill="#425158" />
<rect x="9" y="14" width="1" height="1" fill="#6D7F89" />
<rect x="10" y="14" width="1" height="1" fill="#9EB2BB" />
<rect x="11" y="14" width="1" height="1" fill="#C4DBE3" />
<rect x="12" y="14" width="1" height="1" fill="#C4DBE3" />
<rect x="13" y="14" width="1" height="1" fill="#DAEDF3" />
<rect x="14" y="14" width="1" height="1" fill="#DAEDF3" />
<rect x="15" y="14" width="1" height="1" fill="#DAEDF3" />
<rect x="16" y="14" width="1" height="1" fill="#C5DBE4" />
<rect x="17" y="14" width="1" height="1" fill="#B0C7CF" />
<rect x="18" y="14" width="1" height="1" fill="#758B98" />
<rect x="19" y="14" width="1" height="1" fill="#526470" />
<rect x="20" y="14" width="1" height="1" fill="#425158" />
<rect x="9" y="15" width="1" height="1" fill="#607077" />
<rect x="10" y="15" width="1" height="1" fill="#9EB2BB" />
<rect x="11" y="15" width="1" height="1" fill="#B2C7CF" />
<rect x="12" y="15" width="1" height="1" fill="#C4DBE3" />
<rect x="13" y="15" width="1" height="1" fill="#C4DBE3" />
<rect x="14" y="15" width="1" height="1" fill="#B0C7CF" />
<rect x="15" y="15" width="1" height="1" fill="#A6BCC9" />
<rect x="16" y="15" width="1" height="1" fill="#A6BCC9" />
<rect x="17" y="15" width="1" height="1" fill="#7F95A1" />
<rect x="18" y="15" width="1" height="1" fill="#607382" />
<rect x="19" y="15" width="1" height="1" fill="#425158" />
<rect x="20" y="15" width="1" height="1" fill="#3C474D" />
<rect x="9" y="16" width="1" height="1" fill="#607179" />
<rect x="10" y="16" width="1" height="1" fill="#7C929F" />
<rect x="11" y="16" width="1" height="1" fill="#9EB1BB" />
<rect x="12" y="16" width="1" height="1" fill="#B2C7CF" />
<rect x="13" y="16" width="1" height="1" fill="#B2C7CF" />
<rect x="14" y="16" width="1" height="1" fill="#A6BDC3" />
<rect x="15" y="16" width="1" height="1" fill="#758B98" />
<rect x="16" y="16" width="1" height="1" fill="#758B98" />
<rect x="17" y="16" width="1" height="1" fill="#607382" />
<rect x="18" y="16" width="1" height="1" fill="#3E5160" />
<rect x="19" y="16" width="1" height="1" fill="#425158" />
<rect x="20" y="16" width="1" height="1" fill="#3C474D" />
<rect x="9" y="17" width="1" height="1" fill="#425158" />
<rect x="10" y="17" width="1" height="1" fill="#6F8289" />
<rect x="11" y="17" width="1" height="1" fill="#7F95A1" />
<rect x="12" y="17" width="1" height="1" fill="#7F95A1" />
<rect x="13" y="17" width="1" height="1" fill="#7F95A1" />
<rect x="14" y="17" width="1" height="1" fill="#607382" />
<rect x="15" y="17" width="1" height="1" fill="#607382" />
<rect x="16" y="17" width="1" height="1" fill="#607382" />
<rect x="17" y="17" width="1" height="1" fill="#3E5160" />
<rect x="18" y="17" width="1" height="1" fill="#3E5160" />
<rect x="19" y="17" width="1" height="1" fill="#425158" />
<rect x="20" y="17" width="1" height="1" fill="#3C474D" />
<rect x="10" y="18" width="1" height="1" fill="#425057" />
<rect x="11" y="18" width="1" height="1" fill="#526470" />
<rect x="12" y="18" width="1" height="1" fill="#526470" />
<rect x="13" y="18" width="1" height="1" fill="#526470" />
<rect x="14" y="18" width="1" height="1" fill="#526470" />
<rect x="15" y="18" width="1" height="1" fill="#3F5261" />
<rect x="16" y="18" width="1" height="1" fill="#415158" />
<rect x="17" y="18" width="1" height="1" fill="#415158" />
<rect x="18" y="18" width="1" height="1" fill="#3C474D" />
<rect x="19" y="18" width="1" height="1" fill="#3C474D" />
<rect x="11" y="19" width="1" height="1" fill="#3E484C" />
<rect x="12" y="19" width="1" height="1" fill="#415057" />
<rect x="13" y="19" width="1" height="1" fill="#415057" />
<rect x="14" y="19" width="1" height="1" fill="#415057" />
<rect x="15" y="19" width="1" height="1" fill="#3C474D" />
<rect x="16" y="19" width="1" height="1" fill="#3C474D" />
<rect x="17" y="19" width="1" height="1" fill="#3C474D" />
<rect x="18" y="19" width="1" height="1" fill="#3C474D" />
<rect x="12" y="20" width="1" height="1" fill="#415057" />
<rect x="13" y="20" width="1" height="1" fill="#3C474D" />
<rect x="14" y="20" width="1" height="1" fill="#3C474D" />
<rect x="15" y="20" width="1" height="1" fill="#3C474D" />
<rect x="16" y="20" width="1" height="1" fill="#2E373C" />
<rect x="17" y="20" width="1" height="1" fill="#2E373C" />
</svg>