<?xml version="1.0" encoding="UTF-8" ?>
<svg version="1.1" width="30" height="30" xmlns="http://www.w3.org/2000/svg" shape-rendering="crispEdges">
<rect x="12" y="10" width="1" height="1" fill="#743D1C" />
<rect x="13" y="10" width="1" height="1" fill="#874922" />
<rect x="14" y="10" width="1" height="1" fill="#935120" />
<rect x="15" y="10" width="1" height="1" fill="#753F1D" />
<rect x="16" y="10" width="1" height="1" fill="#603115" />
<rect x="11" y="11" width="1" height="1" fill="#925020" />
<rect x="12" y="11" width="1" height="1" fill="#BB6E2A" />
<rect x="13" y="11" width="1" height="1" fill="#E6A54B" />
<rect x="14" y="11" width="1" height="1" fill="#CE8C3E" />
<rect x="15" y="11" width="1" height="1" fill="#B2692F" />
<rect x="16" y="11" width="1" height="1" fill="#B17834" />
<rect x="17" y="11" width="1" height="1" fill="#603015" />
<rect x="10" y="12" width="1" height="1" fill="#A26A2F" />
<rect x="11" y="12" width="1" height="1" fill="#D49A46" />
<rect x="12" y="12" width="1" height="1" fill="#CC8035" />
<rect x="13" y="12" width="1" height="1" fill="#DC872D" />
<rect x="14" y="12" width="1" height="1" fill="#DD9741" />
<rect x="15" y="12" width="1" height="1" fill="#EBB452" />
<rect x="16" y="12" width="1" height="1" fill="#CB9446" />
<rect x="17" y="12" width="1" height="1" fill="#774A21" />
<rect x="18" y="12" width="1" height="1" fill="#462512" />
<rect x="10" y="13" width="1" height="1" fill="#BD7C30" />
<rect x="11" y="13" width="1" height="1" fill="#EBB352" />
<rect x="12" y="13" width="1" height="1" fill="#DD7B20" />
<rect x="13" y="13" width="1" height="1" fill="#EBB553" />
<rect x="14" y="13" width="1" height="1" fill="#E58C2A" />
<rect x="15" y="13" width="1" height="1" fill="#EBB352" />
<rect x="16" y="13" width="1" height="1" fill="#A36A30" />
<rect x="17" y="13" width="1" height="1" fill="#83582E" />
<rect x="18" y="13" width="1" height="1" fill="#462411" />
<rect x="10" y="14" width="1" height="1" fill="#BE7C32" />
<rect x="11" y="14" width="1" height="1" fill="#DD9741" />
<rect x="12" y="14" width="1" height="1" fill="#E89D42" />
<rect x="13" y="14" width="1" height="1" fill="#E58B2A" />
<rect x="14" y="14" width="1" height="1" fill="#DD7B20" />
<rect x="15" y="14" width="1" height="1" fill="#CE721E" />
<rect x="16" y="14" width="1" height="1" fill="#995217" />
<rect x="17" y="14" width="1" height="1" fill="#743E1C" />
<rect x="18" y="14" width="1" height="1" fill="#462512" />
<rect x="10" y="15" width="1" height="1" fill="#B2692F" />
<rect x="11" y="15" width="1" height="1" fill="#DD7B20" />
<rect x="12" y="15" width="1" height="1" fill="#EBB352" />
<rect x="13" y="15" width="1" height="1" fill="#E6A54C" />
<rect x="14" y="15" width="1" height="1" fill="#EAB351" />
<rect x="15" y="15" width="1" height="1" fill="#D37E27" />
<rect x="16" y="15" width="1" height="1" fill="#8D5A25" />
<rect x="17" y="15" width="1" height="1" fill="#764121" />
<rect x="18" y="15" width="1" height="1" fill="#462411" />
<rect x="10" y="16" width="1" height="1" fill="#A4682F" />
<rect x="11" y="16" width="1" height="1" fill="#BF6D1F" />
<rect x="12" y="16" width="1" height="1" fill="#EEC661" />
<rect x="13" y="16" width="1" height="1" fill="#E6A54B" />
<rect x="14" y="16" width="1" height="1" fill="#AD5710" />
<rect x="15" y="16" width="1" height="1" fill="#964E15" />
<rect x="16" y="16" width="1" height="1" fill="#61371B" />
<rect x="17" y="16" width="1" height="1" fill="#8E5A28" />
<rect x="18" y="16" width="1" height="1" fill="#361B10" />
<rect x="11" y="17" width="1" height="1" fill="#A76727" />
<rect x="12" y="17" width="1" height="1" fill="#BA681D" />
<rect x="13" y="17" width="1" height="1" fill="#B17432" />
<rect x="14" y="17" width="1" height="1" fill="#834517" />
<rect x="15" y="17" width="1" height="1" fill="#603115" />
<rect x="16" y="17" width="1" height="1" fill="#603115" />
<rect x="17" y="17" width="1" height="1" fill="#4F2F17" />
<rect x="12" y="18" width="1" height="1" fill="#361B10" />
<rect x="13" y="18" width="1" height="1" fill="#3C1F13" />
<rect x="14" y="18" width="1" height="1" fill="#361C10" />
<rect x="15" y="18" width="1" height="1" fill="#241C08" />
<rect x="16" y="18" width="1" height="1" fill="#361B10" />
</svg>